<?xml version="1.0" encoding="iso-8859-1"?>
<!-- Uploaded to: SVG Repo, www.svgrepo.com, Generator: SVG Repo Mixer Tools -->
<!DOCTYPE svg PUBLIC "-//W3C//DTD SVG 1.1//EN" "http://www.w3.org/Graphics/SVG/1.1/DTD/svg11.dtd">
<svg fill="#000000" height="800px" width="800px" version="1.1" id="Capa_1" xmlns="http://www.w3.org/2000/svg" xmlns:xlink="http://www.w3.org/1999/xlink" 
	 viewBox="0 0 422.207 422.207" xml:space="preserve">
<path id="XMLID_154_" d="M58.776,239.422h304.655c4.418,0,8-3.582,8-8V45.623c0-4.418-3.582-8-8-8H58.776c-4.418,0-8,3.582-8,8
	v185.799C50.776,235.84,54.357,239.422,58.776,239.422z M66.776,53.623h288.655v169.799H66.776V53.623z M227.159,313.569h-32.107
	c-26.284,0-47.668,21.384-47.668,47.669v46.464c0,4.418,3.582,8,8,8h111.441c4.418,0,8-3.582,8-8v-46.464
	C274.825,334.953,253.442,313.569,227.159,313.569z M258.825,399.702h-95.441v-38.464c0-17.462,14.206-31.669,31.668-31.669h32.107
	c17.461,0,31.666,14.207,31.666,31.669V399.702z M181.338,14.505c0-4.418,3.582-8,8-8h43.531c4.418,0,8,3.582,8,8s-3.582,8-8,8
	h-43.531C184.919,22.505,181.338,18.923,181.338,14.505z M0,290.485c0-4.418,3.582-8,8-8h28.156
	c-0.01-0.168-0.016-0.337-0.016-0.507c0-4.418,3.582-8,8-8h43.531c4.418,0,8,3.582,8,8c0,0.17-0.005,0.339-0.016,0.507h85.697
	c-0.01-0.168-0.016-0.337-0.016-0.507c0-4.418,3.582-8,8-8h43.531c4.418,0,8,3.582,8,8c0,0.17-0.005,0.339-0.016,0.507h85.699
	c-0.01-0.168-0.016-0.337-0.016-0.507c0-4.418,3.582-8,8-8h43.531c4.418,0,8,3.582,8,8c0,0.17-0.005,0.339-0.016,0.507h28.154
	c4.418,0,8,3.582,8,8s-3.582,8-8,8H8C3.582,298.485,0,294.903,0,290.485z M81.96,313.569H49.853
	c-26.284,0-47.668,21.384-47.668,47.669v46.464c0,4.418,3.582,8,8,8h111.442c4.418,0,8-3.582,8-8v-46.464
	C129.627,334.953,108.244,313.569,81.96,313.569z M113.627,399.702H18.185v-38.464c0-17.462,14.206-31.669,31.668-31.669H81.96
	c17.461,0,31.667,14.207,31.667,31.669V399.702z M372.356,313.569h-32.107c-26.284,0-47.668,21.384-47.668,47.669v46.464
	c0,4.418,3.582,8,8,8h111.442c4.418,0,8-3.582,8-8v-46.464C420.023,334.953,398.64,313.569,372.356,313.569z M404.023,399.702
	h-95.442v-38.464c0-17.462,14.206-31.669,31.668-31.669h32.107c17.461,0,31.667,14.207,31.667,31.669V399.702z"/>
</svg>